<?xml version="1.0" encoding="iso-8859-1"?>
<!-- Uploaded to: SVG Repo, www.svgrepo.com, Generator: SVG Repo Mixer Tools -->
<svg fill="#012A4A" height="800px" width="800px" version="1.1" id="Layer_1" xmlns="http://www.w3.org/2000/svg" xmlns:xlink="http://www.w3.org/1999/xlink" 
	 viewBox="0 0 508 508" xml:space="preserve">
<g fill="#012A4A"> 
	<g fill="#012A4A">
		<path d="M42.35,0c-23.3,0-42.3,19-42.3,42.3s19,42.3,42.3,42.3s42.3-19,42.3-42.3S65.75,0,42.35,0z M42.35,56.4
			c-7.8,0-14.1-6.3-14.1-14.1s6.3-14.1,14.1-14.1s14.1,6.3,14.1,14.1S50.15,56.4,42.35,56.4z"/>
	</g>
</g>
<g fill="#012A4A">
	<g>
		<path d="M155.25,0c-23.3,0-42.3,19-42.3,42.3s19,42.3,42.3,42.3s42.3-19,42.3-42.3S178.65,0,155.25,0z M155.25,56.4
			c-7.8,0-14.1-6.3-14.1-14.1s6.3-14.1,14.1-14.1s14.1,6.3,14.1,14.1S163.05,56.4,155.25,56.4z"/>
	</g>
</g>
<g fill="#012A4A">
	<g>
		<path d="M268.15,0c-23.4,0-42.3,19-42.3,42.3s19,42.4,42.3,42.4c23.3,0,42.3-19,42.3-42.3C310.45,19.1,291.55,0,268.15,0z
			 M268.15,56.4c-7.8,0-14.1-6.3-14.1-14.1s6.3-14.1,14.1-14.1c7.8,0,14.1,6.3,14.1,14.1S275.95,56.4,268.15,56.4z"/>
	</g>
</g>
<g fill="#012A4A">
	<g>
		<path d="M155.25,112.9c-23.3,0-42.3,19-42.3,42.3c0,23.3,19,42.3,42.3,42.3s42.3-19,42.3-42.3
			C197.55,131.9,178.65,112.9,155.25,112.9z M155.25,169.3c-7.8,0-14.1-6.3-14.1-14.1c0-7.8,6.3-14.1,14.1-14.1s14.1,6.3,14.1,14.1
			C169.35,163,163.05,169.3,155.25,169.3z"/>
	</g>
</g>
<g fill="#012A4A">
	<g>
		<path d="M42.35,112.9c-23.3,0-42.3,19-42.3,42.3c0,23.3,19,42.3,42.3,42.3s42.3-19,42.3-42.3C84.65,131.9,65.75,112.9,42.35,112.9
			z M42.35,169.3c-7.8,0-14.1-6.3-14.1-14.1c0-7.8,6.3-14.1,14.1-14.1s14.1,6.3,14.1,14.1C56.45,163,50.15,169.3,42.35,169.3z"/>
	</g>
</g>
<g fill="#012A4A">
	<g>
		<path d="M42.35,225.8c-23.3,0-42.3,19-42.3,42.3c0,23.3,19,42.3,42.3,42.3s42.3-19,42.3-42.3S65.75,225.8,42.35,225.8z
			 M42.35,282.2c-7.8,0-14.1-6.3-14.1-14.1c0-7.8,6.4-14.1,14.1-14.1s14.1,6.3,14.1,14.1C56.45,275.9,50.15,282.2,42.35,282.2z"/>
	</g>
</g>
<g fill="#012A4A">
	<g>
		<path d="M155.25,225.8c-23.3,0-42.3,19-42.3,42.3c0,23.3,19,42.3,42.3,42.3s42.3-19,42.3-42.3S178.65,225.8,155.25,225.8z
			 M155.25,282.2c-7.8,0-14.1-6.3-14.1-14.1c0-7.8,6.3-14.1,14.1-14.1s14.1,6.3,14.1,14.1C169.35,275.9,163.05,282.2,155.25,282.2z"
			/>
	</g>
</g>
<g fill="#012A4A">
	<g>
		<path d="M466.15,254.2c-10.7-1-21.4,1.7-30.2,7.5c-7.5-11.9-20-20.3-34.4-21.6c-10.7-1-21.4,1.7-30.2,7.5
			c-7.5-11.9-20-20.3-34.4-21.6c-7.8-0.7-15.6,0.5-22.7,3.5v-70c0-25.6-20.8-46.4-46.4-46.4c-25.6,0-46.4,20.8-46.4,46.4v301.4
			c0,3.7,1.5,7.3,4.1,10l33,33c2.6,2.6,6.2,4.1,10,4.1h192.3c3.7,0,7.3-1.5,10-4.1l33-33c2.6-2.6,4.1-6.2,4.1-10V301.8
			C508.05,277.3,489.65,256.5,466.15,254.2z M455.15,479.8h-180.6l-24.7-24.7V159.4c0-10,8.1-18.2,18.2-18.2
			c10,0,18.2,8.1,18.2,18.2v164.1c0,7,4.8,13.5,11.7,14.7c8.8,1.4,16.5-5.3,16.5-13.9v-50.9c0-9.5,6.8-18.2,16.3-19.1
			c10.9-1.1,20,7.4,20,18.1v51.2c0,7,4.8,13.5,11.7,14.7c8.8,1.4,16.5-5.3,16.5-13.9v-36.8c0-9.5,6.8-18.2,16.3-19.1
			c10.9-1.1,20,7.4,20,18.1v37.1c0,7,4.8,13.5,11.7,14.7c8.8,1.4,16.5-5.3,16.5-13.9v-22.7c0-9.5,6.8-18.2,16.3-19.1
			c10.9-1.1,20,7.4,20,18.1v154.3h0.1L455.15,479.8z"/>
	</g>
</g>
</svg>